<svg xmlns="http://www.w3.org/2000/svg" version="1.1" xmlns:xlink="http://www.w3.org/1999/xlink" xmlns:svgjs="http://svgjs.dev/svgjs" width="195" height="195"><svg width="195" height="195" viewBox="0 0 195 195" fill="none" xmlns="http://www.w3.org/2000/svg">
<rect x="4" y="105" width="86" height="86" rx="11" fill="#FB02A8" stroke="#FACC15" stroke-width="8"></rect>
<path d="M38.8 129.28C38.288 131.072 37.664 132.848 36.928 134.608C36.192 136.368 35.392 138.096 34.528 139.792C34.464 139.92 34.432 140.032 34.432 140.128V166.96C34.432 167.504 34.224 167.984 33.808 168.4C33.424 168.816 32.928 169.024 32.32 169.024C31.776 169.024 31.296 168.816 30.88 168.4C30.464 168.016 30.256 167.536 30.256 166.96V147.04C30.256 146.912 30.208 146.832 30.112 146.8C30.048 146.768 29.984 146.816 29.92 146.944C29.696 147.232 29.472 147.52 29.248 147.808C29.024 148.064 28.784 148.32 28.528 148.576C28.144 149.024 27.648 149.248 27.04 149.248C26.432 149.248 25.904 148.992 25.456 148.48C25.104 148.096 24.928 147.6 24.928 146.992C24.928 146.288 25.152 145.712 25.6 145.264C27.392 143.408 29.072 141.024 30.64 138.112C32.208 135.2 33.568 131.92 34.72 128.272C34.88 127.792 35.152 127.424 35.536 127.168C35.92 126.88 36.352 126.736 36.832 126.736C37.44 126.736 37.936 126.928 38.32 127.312C38.704 127.696 38.896 128.16 38.896 128.704C38.896 128.8 38.88 128.896 38.848 128.992C38.848 129.088 38.832 129.184 38.8 129.28ZM53.536 136.048C53.536 136.24 53.632 136.336 53.824 136.336H62.224C63.088 136.336 63.824 136.656 64.432 137.296C65.072 137.904 65.392 138.64 65.392 139.504V151.456C65.392 152.32 65.072 153.072 64.432 153.712C63.824 154.32 63.088 154.624 62.224 154.624H53.824C53.632 154.624 53.536 154.72 53.536 154.912V166.912C53.536 167.52 53.312 168.016 52.864 168.4C52.448 168.816 51.968 169.024 51.424 169.024C50.848 169.024 50.352 168.816 49.936 168.4C49.52 168.016 49.312 167.52 49.312 166.912V154.912C49.312 154.72 49.216 154.624 49.024 154.624H40.768C39.872 154.624 39.12 154.32 38.512 153.712C37.904 153.072 37.6 152.32 37.6 151.456V139.504C37.6 138.64 37.904 137.904 38.512 137.296C39.152 136.656 39.904 136.336 40.768 136.336H49.024C49.216 136.336 49.312 136.24 49.312 136.048V129.232C49.312 128.688 49.504 128.208 49.888 127.792C50.304 127.376 50.816 127.168 51.424 127.168C51.968 127.168 52.448 127.376 52.864 127.792C53.312 128.176 53.536 128.656 53.536 129.232V136.048ZM42.064 140.464C41.872 140.464 41.776 140.56 41.776 140.752V150.256C41.776 150.448 41.872 150.544 42.064 150.544H49.024C49.216 150.544 49.312 150.448 49.312 150.256V140.752C49.312 140.56 49.216 140.464 49.024 140.464H42.064ZM53.536 150.256C53.536 150.448 53.632 150.544 53.824 150.544H60.928C61.12 150.544 61.216 150.448 61.216 150.256V140.752C61.216 140.56 61.12 140.464 60.928 140.464H53.824C53.632 140.464 53.536 140.56 53.536 140.752V150.256Z" fill="white"></path>
<rect x="105" y="4" width="86" height="86" rx="11" fill="#FC4EC2" stroke="#78EF80" stroke-width="8"></rect>
<path d="M132.056 42.48C131.448 42.48 130.936 42.272 130.52 41.856C130.136 41.44 129.944 40.96 129.944 40.416V34.656C129.944 33.792 130.248 33.056 130.856 32.448C131.496 31.808 132.248 31.488 133.112 31.488H146.552C146.744 31.488 146.84 31.392 146.84 31.2V28.656C146.84 28.08 147.032 27.584 147.416 27.168C147.832 26.752 148.328 26.544 148.904 26.544C149.48 26.544 149.96 26.752 150.344 27.168C150.76 27.584 150.968 28.08 150.968 28.656V31.2C150.968 31.392 151.064 31.488 151.256 31.488H164.888C165.752 31.488 166.488 31.792 167.096 32.4C167.736 33.008 168.056 33.76 168.056 34.656V40.416C168.056 40.96 167.848 41.44 167.432 41.856C167.048 42.272 166.568 42.48 165.992 42.48C165.384 42.48 164.872 42.272 164.456 41.856C164.072 41.44 163.88 40.96 163.88 40.416V35.904C163.88 35.712 163.784 35.616 163.592 35.616H134.408C134.216 35.616 134.12 35.712 134.12 35.904V40.416C134.12 40.992 133.912 41.488 133.496 41.904C133.08 42.288 132.6 42.48 132.056 42.48ZM151.976 51.072C151.848 51.136 151.8 51.216 151.832 51.312C151.864 51.376 151.944 51.408 152.072 51.408H167.528C168.072 51.408 168.536 51.616 168.92 52.032C169.336 52.416 169.544 52.896 169.544 53.472C169.544 54.016 169.336 54.496 168.92 54.912C168.536 55.328 168.072 55.536 167.528 55.536H151.304C151.112 55.536 151.016 55.632 151.016 55.824V63.792C151.016 67.248 148.712 68.976 144.104 68.976C143.784 68.976 143.464 68.96 143.144 68.928C142.856 68.928 142.536 68.912 142.184 68.88C141.64 68.816 141.176 68.576 140.792 68.16C140.44 67.744 140.264 67.264 140.264 66.72C140.264 66.112 140.472 65.616 140.888 65.232C141.336 64.848 141.864 64.688 142.472 64.752C142.888 64.784 143.256 64.816 143.576 64.848C143.928 64.848 144.248 64.848 144.536 64.848C145.432 64.848 146.04 64.768 146.36 64.608C146.68 64.416 146.84 64.144 146.84 63.792V55.824C146.84 55.632 146.744 55.536 146.552 55.536H130.472C129.928 55.536 129.448 55.344 129.032 54.96C128.648 54.544 128.456 54.048 128.456 53.472C128.456 52.896 128.648 52.416 129.032 52.032C129.448 51.616 129.928 51.408 130.472 51.408H146.552C146.744 51.408 146.84 51.312 146.84 51.12V48.624C146.84 48.048 147.032 47.552 147.416 47.136C147.832 46.72 148.328 46.512 148.904 46.512C149.416 46.512 149.864 46.672 150.248 46.992C150.376 47.12 150.52 47.136 150.68 47.04C151.992 46.272 153.24 45.264 154.424 44.016C154.52 43.952 154.552 43.888 154.52 43.824C154.488 43.728 154.408 43.68 154.28 43.68H138.584C138.04 43.68 137.56 43.488 137.144 43.104C136.76 42.72 136.568 42.24 136.568 41.664C136.568 41.12 136.76 40.656 137.144 40.272C137.56 39.856 138.04 39.648 138.584 39.648H159.128C159.768 39.648 160.264 39.856 160.616 40.272C161 40.656 161.192 41.104 161.192 41.616C161.192 41.936 161.096 42.272 160.904 42.624C159.816 44.32 158.472 45.92 156.872 47.424C155.272 48.928 153.64 50.144 151.976 51.072Z" fill="white"></path>
<rect x="105" y="105" width="86" height="86" rx="11" fill="#FD9ADC" stroke="#4EC6FC" stroke-width="8"></rect>
<path d="M146.416 130.864V141.808C146.416 142.672 146.112 143.424 145.504 144.064C144.896 144.672 144.144 144.976 143.248 144.976H133.408C133.216 144.976 133.12 145.072 133.12 145.264V166.96C133.12 167.536 132.912 168.032 132.496 168.448C132.112 168.864 131.632 169.072 131.056 169.072C130.448 169.072 129.936 168.864 129.52 168.448C129.136 168.032 128.944 167.536 128.944 166.96V130.864C128.944 130.032 129.248 129.312 129.856 128.704C130.496 128.064 131.248 127.744 132.112 127.744H143.248C144.112 127.744 144.848 128.048 145.456 128.656C146.096 129.264 146.416 130 146.416 130.864ZM152.272 127.744H163.888C164.752 127.744 165.488 128.048 166.096 128.656C166.736 129.264 167.056 130 167.056 130.864V163.792C167.056 165.616 166.496 166.928 165.376 167.728C164.288 168.56 162.544 168.96 160.144 168.928C159.6 168.928 159.12 168.72 158.704 168.304C158.32 167.888 158.128 167.392 158.128 166.816C158.128 166.176 158.336 165.664 158.752 165.28C159.168 164.864 159.68 164.672 160.288 164.704C160.544 164.704 160.784 164.72 161.008 164.752C161.232 164.752 161.424 164.752 161.584 164.752C162.224 164.752 162.592 164.688 162.688 164.56C162.816 164.432 162.88 164.176 162.88 163.792V145.264C162.88 145.072 162.784 144.976 162.592 144.976H152.272C151.408 144.976 150.656 144.672 150.016 144.064C149.408 143.456 149.104 142.704 149.104 141.808V130.864C149.104 130.032 149.408 129.312 150.016 128.704C150.656 128.064 151.408 127.744 152.272 127.744ZM142.048 134.368C142.24 134.368 142.336 134.272 142.336 134.08V131.968C142.336 131.776 142.24 131.68 142.048 131.68H133.408C133.216 131.68 133.12 131.776 133.12 131.968V134.08C133.12 134.272 133.216 134.368 133.408 134.368H142.048ZM162.592 134.368C162.784 134.368 162.88 134.272 162.88 134.08V131.968C162.88 131.776 162.784 131.68 162.592 131.68H153.52C153.328 131.68 153.232 131.776 153.232 131.968V134.08C153.232 134.272 153.328 134.368 153.52 134.368H162.592ZM133.408 138.352C133.216 138.352 133.12 138.448 133.12 138.64V140.752C133.12 140.944 133.216 141.04 133.408 141.04H142.048C142.24 141.04 142.336 140.944 142.336 140.752V138.64C142.336 138.448 142.24 138.352 142.048 138.352H133.408ZM153.52 138.352C153.328 138.352 153.232 138.448 153.232 138.64V140.752C153.232 140.944 153.328 141.04 153.52 141.04H162.592C162.784 141.04 162.88 140.944 162.88 140.752V138.64C162.88 138.448 162.784 138.352 162.592 138.352H153.52ZM142.864 147.088H153.136C154 147.088 154.736 147.392 155.344 148C155.984 148.608 156.304 149.36 156.304 150.256V162.64C156.304 163.536 155.984 164.288 155.344 164.896C154.736 165.504 154 165.808 153.136 165.808H142.864C142 165.808 141.248 165.504 140.608 164.896C140 164.288 139.696 163.536 139.696 162.64V150.256C139.696 149.392 140 148.656 140.608 148.048C141.216 147.408 141.968 147.088 142.864 147.088ZM151.984 154.48C152.176 154.48 152.272 154.384 152.272 154.192V151.264C152.272 151.072 152.176 150.976 151.984 150.976H144.016C143.824 150.976 143.728 151.072 143.728 151.264V154.192C143.728 154.384 143.824 154.48 144.016 154.48H151.984ZM144.016 158.416C143.824 158.416 143.728 158.512 143.728 158.704V161.632C143.728 161.824 143.824 161.92 144.016 161.92H151.984C152.176 161.92 152.272 161.824 152.272 161.632V158.704C152.272 158.512 152.176 158.416 151.984 158.416H144.016Z" fill="#374151"></path>
<rect x="4" y="4" width="86" height="86" rx="11" fill="#FED9F2" stroke="#FC4EC2" stroke-width="8"></rect>
<path d="M44.6 33.272C44.6 33.08 44.504 32.984 44.312 32.984H38.264C37.752 32.984 37.304 32.792 36.92 32.408C36.536 32.024 36.344 31.576 36.344 31.064C36.344 30.52 36.536 30.056 36.92 29.672C37.304 29.288 37.752 29.096 38.264 29.096H44.312C44.504 29.096 44.6 29 44.6 28.808V28.088C44.6 27.512 44.792 27.032 45.176 26.648C45.592 26.232 46.088 26.024 46.664 26.024C47.24 26.024 47.72 26.232 48.104 26.648C48.52 27.032 48.728 27.512 48.728 28.088V28.808C48.728 29 48.824 29.096 49.016 29.096H54.008C54.2 29.096 54.296 29 54.296 28.808V28.088C54.296 27.512 54.488 27.032 54.872 26.648C55.288 26.232 55.784 26.024 56.36 26.024C56.904 26.024 57.384 26.232 57.8 26.648C58.216 27.032 58.424 27.512 58.424 28.088V28.808C58.424 29 58.52 29.096 58.712 29.096H65.384C65.928 29.096 66.392 29.288 66.776 29.672C67.16 30.056 67.352 30.52 67.352 31.064C67.352 31.576 67.16 32.024 66.776 32.408C66.392 32.792 65.928 32.984 65.384 32.984H58.712C58.52 32.984 58.424 33.08 58.424 33.272V33.704C58.424 34.248 58.216 34.728 57.8 35.144C57.416 35.56 56.936 35.768 56.36 35.768C55.816 35.768 55.336 35.576 54.92 35.192C54.504 34.776 54.296 34.28 54.296 33.704V33.272C54.296 33.08 54.2 32.984 54.008 32.984H49.016C48.824 32.984 48.728 33.08 48.728 33.272V33.704C48.728 34.248 48.52 34.728 48.104 35.144C47.72 35.56 47.24 35.768 46.664 35.768C46.12 35.768 45.64 35.576 45.224 35.192C44.808 34.776 44.6 34.28 44.6 33.704V33.272ZM28.04 31.496C27.592 31.368 27.224 31.128 26.936 30.776C26.648 30.392 26.504 29.976 26.504 29.528C26.504 28.888 26.712 28.376 27.128 27.992C27.544 27.608 28.008 27.416 28.52 27.416C28.616 27.416 28.712 27.432 28.808 27.464C28.904 27.464 29 27.48 29.096 27.512C30.024 27.736 30.984 28.04 31.976 28.424C32.968 28.776 33.912 29.176 34.808 29.624C35.224 29.816 35.528 30.104 35.72 30.488C35.944 30.872 36.056 31.272 36.056 31.688C36.056 32.328 35.864 32.84 35.48 33.224C35.096 33.576 34.664 33.752 34.184 33.752C33.896 33.752 33.592 33.672 33.272 33.512C32.536 33.16 31.72 32.808 30.824 32.456C29.928 32.104 29 31.784 28.04 31.496ZM66.2 63.704C66.648 63.832 67.016 64.088 67.304 64.472C67.624 64.856 67.784 65.272 67.784 65.72C67.784 66.328 67.576 66.824 67.16 67.208C66.776 67.592 66.312 67.784 65.768 67.784C65.576 67.784 65.432 67.768 65.336 67.736C62.36 67.096 59.688 66.104 57.32 64.76C54.984 63.384 53.128 61.96 51.752 60.488C51.624 60.36 51.496 60.36 51.368 60.488C50.344 61.608 49.032 62.664 47.432 63.656C45.864 64.616 44.136 65.448 42.248 66.152C40.392 66.888 38.488 67.432 36.536 67.784C35.928 67.88 35.4 67.72 34.952 67.304C34.504 66.888 34.28 66.36 34.28 65.72C34.28 65.24 34.44 64.808 34.76 64.424C35.112 64.04 35.544 63.784 36.056 63.656C38.072 63.24 40.008 62.632 41.864 61.832C43.752 61.032 45.336 60.136 46.616 59.144C46.744 59.08 46.792 59.016 46.76 58.952C46.728 58.856 46.648 58.808 46.52 58.808H37.64C37.128 58.808 36.664 58.616 36.248 58.232C35.864 57.848 35.672 57.384 35.672 56.84C35.672 56.296 35.864 55.832 36.248 55.448C36.632 55.064 37.096 54.872 37.64 54.872H49.16C49.352 54.872 49.448 54.776 49.448 54.584V52.952C49.448 52.76 49.352 52.664 49.16 52.664H39.896C39.352 52.664 38.872 52.472 38.456 52.088C38.072 51.704 37.88 51.24 37.88 50.696C37.88 50.152 38.072 49.688 38.456 49.304C38.84 48.92 39.32 48.728 39.896 48.728H49.16C49.352 48.728 49.448 48.632 49.448 48.44V46.952C49.448 46.76 49.352 46.664 49.16 46.664H42.248C41.416 46.664 40.68 46.36 40.04 45.752C39.4 45.144 39.08 44.392 39.08 43.496V39.416C39.08 38.584 39.384 37.864 39.992 37.256C40.632 36.616 41.384 36.296 42.248 36.296H60.776C61.64 36.296 62.376 36.6 62.984 37.208C63.624 37.816 63.944 38.552 63.944 39.416V43.496C63.944 44.36 63.64 45.112 63.032 45.752C62.424 46.36 61.672 46.664 60.776 46.664H53.912C53.72 46.664 53.624 46.76 53.624 46.952V48.44C53.624 48.632 53.72 48.728 53.912 48.728H63.176C63.72 48.728 64.184 48.92 64.568 49.304C64.952 49.688 65.144 50.152 65.144 50.696C65.144 51.24 64.952 51.704 64.568 52.088C64.184 52.472 63.72 52.664 63.176 52.664H53.912C53.72 52.664 53.624 52.76 53.624 52.952V54.584C53.624 54.776 53.72 54.872 53.912 54.872H65.432C65.976 54.872 66.44 55.064 66.824 55.448C67.208 55.832 67.4 56.296 67.4 56.84C67.4 57.352 67.208 57.816 66.824 58.232C66.44 58.616 65.976 58.808 65.432 58.808H56.456C56.328 58.808 56.232 58.84 56.168 58.904C56.136 58.968 56.152 59.032 56.216 59.096C57.432 60.024 58.904 60.904 60.632 61.736C62.392 62.536 64.248 63.192 66.2 63.704ZM33.176 44.84C32.312 44.36 31.368 43.912 30.344 43.496C29.352 43.08 28.376 42.712 27.416 42.392C26.968 42.232 26.6 41.976 26.312 41.624C26.056 41.24 25.928 40.84 25.928 40.424C25.928 39.784 26.136 39.272 26.552 38.888C26.968 38.504 27.448 38.312 27.992 38.312C28.088 38.312 28.264 38.344 28.52 38.408C29.512 38.728 30.552 39.096 31.64 39.512C32.728 39.928 33.736 40.36 34.664 40.808C35.592 41.224 36.056 41.944 36.056 42.968C36.056 43.608 35.864 44.12 35.48 44.504C35.096 44.888 34.648 45.08 34.136 45.08C33.816 45.08 33.496 45 33.176 44.84ZM43.496 39.848C43.304 39.848 43.208 39.944 43.208 40.136V42.824C43.208 43.016 43.304 43.112 43.496 43.112H49.16C49.352 43.112 49.448 43.016 49.448 42.824V40.136C49.448 39.944 49.352 39.848 49.16 39.848H43.496ZM53.624 42.824C53.624 43.016 53.72 43.112 53.912 43.112H59.528C59.72 43.112 59.816 43.016 59.816 42.824V40.136C59.816 39.944 59.72 39.848 59.528 39.848H53.912C53.72 39.848 53.624 39.944 53.624 40.136V42.824ZM33.8 48.44C34.504 48.44 35.064 48.712 35.48 49.256C35.928 49.768 36.072 50.344 35.912 50.984C35.624 52.36 35.224 53.992 34.712 55.88C34.232 57.736 33.672 59.624 33.032 61.544C32.424 63.432 31.784 65.16 31.112 66.728C30.92 67.176 30.616 67.528 30.2 67.784C29.816 68.04 29.4 68.168 28.952 68.168C28.344 68.168 27.832 67.976 27.416 67.592C27 67.208 26.792 66.76 26.792 66.248C26.792 66.088 26.808 65.944 26.84 65.816C26.904 65.688 26.952 65.56 26.984 65.432C27.944 63.288 28.84 60.888 29.672 58.232C30.536 55.544 31.24 52.84 31.784 50.12C31.88 49.64 32.12 49.24 32.504 48.92C32.92 48.6 33.352 48.44 33.8 48.44Z" fill="#374151"></path>
</svg><style>@media (prefers-color-scheme: light) { :root { filter: none; } }
@media (prefers-color-scheme: dark) { :root { filter: none; } }
</style></svg>